<?xml version="1.0" encoding="UTF-8"?><svg xmlns="http://www.w3.org/2000/svg" xmlns:xlink="http://www.w3.org/1999/xlink" fill-opacity="1" color-rendering="auto" color-interpolation="auto" text-rendering="auto" stroke="black" stroke-linecap="square" width="573" stroke-miterlimit="10" shape-rendering="auto" stroke-opacity="1" fill="black" stroke-dasharray="none" font-weight="normal" stroke-width="1" height="249" font-family="'Dialog'" font-style="normal" stroke-linejoin="miter" font-size="12px" stroke-dashoffset="0" image-rendering="auto">
  <!--Generated by ySVG 2.5-->
  <defs id="genericDefs"/>
  <g>
    <defs id="defs1">
      <clipPath clipPathUnits="userSpaceOnUse" id="clipPath1">
        <path d="M0 0 L573 0 L573 249 L0 249 L0 0 Z"/>
      </clipPath>
      <clipPath clipPathUnits="userSpaceOnUse" id="clipPath2">
        <path d="M49 293 L622 293 L622 542 L49 542 L49 293 Z"/>
      </clipPath>
    </defs>
    <g fill="white" text-rendering="geometricPrecision" shape-rendering="geometricPrecision" transform="translate(-49,-293)" stroke="white">
      <rect x="49" width="573" height="249" y="293" clip-path="url(#clipPath2)" stroke="none"/>
    </g>
    <g fill="white" text-rendering="geometricPrecision" shape-rendering="geometricPrecision" transform="matrix(1,0,0,1,-49,-293)" stroke="white">
      <rect x="64.8643" width="110" height="160" y="336" clip-path="url(#clipPath2)" stroke="none"/>
      <circle fill="black" r="5" clip-path="url(#clipPath2)" cx="176" cy="336" stroke="none"/>
    </g>
    <g font-size="14px" stroke-linecap="butt" transform="matrix(1,0,0,1,-49,-293)" text-rendering="geometricPrecision" font-family="sans-serif" shape-rendering="geometricPrecision" font-weight="bold" stroke-miterlimit="1.45">
      <text x="168.6611" xml:space="preserve" y="324.374" clip-path="url(#clipPath2)" stroke="none">S1</text>
      <circle fill="none" r="5" clip-path="url(#clipPath2)" cx="176" cy="336"/>
    </g>
    <g text-rendering="geometricPrecision" shape-rendering="geometricPrecision" transform="matrix(1,0,0,1,-49,-293)">
      <circle r="5" clip-path="url(#clipPath2)" cx="176" cy="496" stroke="none"/>
    </g>
    <g font-size="14px" stroke-linecap="butt" transform="matrix(1,0,0,1,-49,-293)" text-rendering="geometricPrecision" font-family="sans-serif" shape-rendering="geometricPrecision" font-weight="bold" stroke-miterlimit="1.45">
      <text x="167.438" xml:space="preserve" y="518.2046" clip-path="url(#clipPath2)" stroke="none">S0</text>
      <circle fill="none" r="5" clip-path="url(#clipPath2)" cx="176" cy="496"/>
    </g>
    <g text-rendering="geometricPrecision" shape-rendering="geometricPrecision" transform="matrix(1,0,0,1,-49,-293)">
      <circle r="5" clip-path="url(#clipPath2)" cx="288" cy="416" stroke="none"/>
    </g>
    <g font-size="14px" stroke-linecap="butt" transform="matrix(1,0,0,1,-49,-293)" text-rendering="geometricPrecision" font-family="sans-serif" shape-rendering="geometricPrecision" font-weight="bold" stroke-miterlimit="1.45">
      <text x="287.1068" xml:space="preserve" y="400.5268" clip-path="url(#clipPath2)" stroke="none">S2</text>
      <circle fill="none" r="5" clip-path="url(#clipPath2)" cx="288" cy="416"/>
    </g>
    <g fill="silver" text-rendering="geometricPrecision" shape-rendering="geometricPrecision" transform="matrix(1,0,0,1,-49,-293)" stroke="silver">
      <path d="M385.1808 416 L495.5904 337 L606 416 L495.5904 495 Z" fill-rule="evenodd" clip-path="url(#clipPath2)" stroke="none"/>
    </g>
    <g font-size="14px" stroke-linecap="butt" transform="matrix(1,0,0,1,-49,-293)" text-rendering="geometricPrecision" font-family="sans-serif" shape-rendering="geometricPrecision" font-weight="bold" stroke-miterlimit="1.45">
      <text x="436.15" xml:space="preserve" y="421.4995" clip-path="url(#clipPath2)" stroke="none">S345</text>
    </g>
    <g fill="white" text-rendering="geometricPrecision" shape-rendering="geometricPrecision" transform="matrix(1,0,0,1,-49,-293)" stroke="white">
      <rect x="496.3984" width="110" height="160" y="336" clip-path="url(#clipPath2)" stroke="none"/>
      <circle fill="black" r="5" clip-path="url(#clipPath2)" cx="496" cy="336" stroke="none"/>
    </g>
    <g font-size="14px" stroke-linecap="butt" transform="matrix(1,0,0,1,-49,-293)" text-rendering="geometricPrecision" font-family="sans-serif" shape-rendering="geometricPrecision" font-weight="bold" stroke-miterlimit="1.45">
      <text x="487.438" xml:space="preserve" y="324.5374" clip-path="url(#clipPath2)" stroke="none">S4</text>
      <circle fill="none" r="5" clip-path="url(#clipPath2)" cx="496" cy="336"/>
    </g>
    <g text-rendering="geometricPrecision" shape-rendering="geometricPrecision" transform="matrix(1,0,0,1,-49,-293)">
      <circle r="5" clip-path="url(#clipPath2)" cx="384" cy="416" stroke="none"/>
    </g>
    <g font-size="14px" stroke-linecap="butt" transform="matrix(1,0,0,1,-49,-293)" text-rendering="geometricPrecision" font-family="sans-serif" shape-rendering="geometricPrecision" font-weight="bold" stroke-miterlimit="1.45">
      <text x="365.876" xml:space="preserve" y="401.0002" clip-path="url(#clipPath2)" stroke="none">S3</text>
      <circle fill="none" r="5" clip-path="url(#clipPath2)" cx="384" cy="416"/>
    </g>
    <g text-rendering="geometricPrecision" shape-rendering="geometricPrecision" transform="matrix(1,0,0,1,-49,-293)">
      <circle r="5" clip-path="url(#clipPath2)" cx="496" cy="496" stroke="none"/>
    </g>
    <g font-size="14px" stroke-linecap="butt" transform="matrix(1,0,0,1,-49,-293)" text-rendering="geometricPrecision" font-family="sans-serif" shape-rendering="geometricPrecision" font-weight="bold" stroke-miterlimit="1.45">
      <text x="487.438" xml:space="preserve" y="517.1329" clip-path="url(#clipPath2)" stroke="none">S5</text>
      <circle fill="none" r="5" clip-path="url(#clipPath2)" cx="496" cy="496"/>
      <text x="310.6719" font-size="16px" y="516.7891" clip-path="url(#clipPath2)" font-family="'Garamond'" stroke="none" font-weight="normal" xml:space="preserve">Diabolo</text>
    </g>
    <g text-rendering="geometricPrecision" stroke-miterlimit="1.45" stroke-width="2" shape-rendering="geometricPrecision" transform="matrix(1,0,0,1,-49,-293)" stroke-linecap="butt">
      <path fill="none" d="M176 491 L176 350" clip-path="url(#clipPath2)"/>
      <path d="M176 341 L170.375 354.5 L176 351.125 L181.625 354.5 Z" clip-path="url(#clipPath2)" stroke="none"/>
    </g>
    <g font-size="14px" stroke-linecap="butt" transform="matrix(1,0,0,1,-49,-293)" text-rendering="geometricPrecision" font-family="sans-serif" shape-rendering="geometricPrecision" font-weight="bold" stroke-miterlimit="1.45">
      <text x="147.0898" xml:space="preserve" y="421.4995" clip-path="url(#clipPath2)" stroke="none">S01</text>
    </g>
    <g text-rendering="geometricPrecision" stroke-miterlimit="1.45" stroke-width="2" shape-rendering="geometricPrecision" transform="matrix(1,0,0,1,-49,-293)" stroke-linecap="butt">
      <path fill="none" d="M276.6077 424.1373 L180.0687 493.0938" clip-path="url(#clipPath2)"/>
      <path d="M283.9313 418.9062 L269.6765 422.1756 L275.6923 424.7912 L276.2154 431.3301 Z" clip-path="url(#clipPath2)" stroke="none"/>
    </g>
    <g font-size="14px" stroke-linecap="butt" transform="matrix(1,0,0,1,-49,-293)" text-rendering="geometricPrecision" font-family="sans-serif" shape-rendering="geometricPrecision" font-weight="bold" stroke-miterlimit="1.45">
      <text x="245.9648" xml:space="preserve" y="465.5289" clip-path="url(#clipPath2)" stroke="none">S02</text>
    </g>
    <g text-rendering="geometricPrecision" stroke-miterlimit="1.45" stroke-width="2" shape-rendering="geometricPrecision" transform="matrix(1,0,0,1,-49,-293)" stroke-linecap="butt">
      <path fill="none" d="M276.6077 407.8627 L180.0687 338.9062" clip-path="url(#clipPath2)"/>
      <path d="M283.9313 413.0938 L276.2154 400.6699 L275.6923 407.2088 L269.6765 409.8244 Z" clip-path="url(#clipPath2)" stroke="none"/>
    </g>
    <g font-size="14px" stroke-linecap="butt" transform="matrix(1,0,0,1,-49,-293)" text-rendering="geometricPrecision" font-family="sans-serif" shape-rendering="geometricPrecision" font-weight="bold" stroke-miterlimit="1.45">
      <text x="219.5449" xml:space="preserve" y="358.5988" clip-path="url(#clipPath2)" stroke="none">S12</text>
    </g>
    <g text-rendering="geometricPrecision" stroke-miterlimit="1.45" stroke-width="2" shape-rendering="geometricPrecision" transform="matrix(1,0,0,1,-49,-293)" stroke-linecap="butt">
      <path fill="none" d="M293 416 L370 416" clip-path="url(#clipPath2)"/>
      <path d="M379 416 L365.5 410.375 L368.875 416 L365.5 421.625 Z" clip-path="url(#clipPath2)" stroke="none"/>
    </g>
    <g font-size="14px" stroke-linecap="butt" transform="matrix(1,0,0,1,-49,-293)" text-rendering="geometricPrecision" font-family="sans-serif" shape-rendering="geometricPrecision" font-weight="bold" stroke-miterlimit="1.45">
      <text x="323.5449" xml:space="preserve" y="434.0752" clip-path="url(#clipPath2)" stroke="none">S23</text>
    </g>
    <g text-rendering="geometricPrecision" stroke-miterlimit="1.45" stroke-width="2" shape-rendering="geometricPrecision" transform="matrix(1,0,0,1,-49,-293)" stroke-linecap="butt">
      <path fill="none" d="M388.0687 413.0938 L484.6077 344.1373" clip-path="url(#clipPath2)"/>
      <path d="M491.9313 338.9062 L477.6765 342.1756 L483.6923 344.7912 L484.2154 351.3301 Z" clip-path="url(#clipPath2)" stroke="none"/>
    </g>
    <g font-size="14px" stroke-linecap="butt" transform="matrix(1,0,0,1,-49,-293)" text-rendering="geometricPrecision" font-family="sans-serif" shape-rendering="geometricPrecision" font-weight="bold" stroke-miterlimit="1.45">
      <text x="401.125" xml:space="preserve" y="377.4702" clip-path="url(#clipPath2)" stroke="none">S34</text>
    </g>
    <g text-rendering="geometricPrecision" stroke-miterlimit="1.45" stroke-width="2" shape-rendering="geometricPrecision" transform="matrix(1,0,0,1,-49,-293)" stroke-linecap="butt">
      <path fill="none" d="M496 341 L496 482" clip-path="url(#clipPath2)"/>
      <path d="M496 491 L501.625 477.5 L496 480.875 L490.375 477.5 Z" clip-path="url(#clipPath2)" stroke="none"/>
    </g>
    <g font-size="14px" stroke-linecap="butt" transform="matrix(1,0,0,1,-49,-293)" text-rendering="geometricPrecision" font-family="sans-serif" shape-rendering="geometricPrecision" font-weight="bold" stroke-miterlimit="1.45">
      <text x="500" xml:space="preserve" y="421.4995" clip-path="url(#clipPath2)" stroke="none">S45</text>
    </g>
    <g text-rendering="geometricPrecision" stroke-miterlimit="1.45" stroke-width="2" shape-rendering="geometricPrecision" transform="matrix(1,0,0,1,-49,-293)" stroke-linecap="butt">
      <path fill="none" d="M484.6077 487.8627 L388.0687 418.9062" clip-path="url(#clipPath2)"/>
      <path d="M491.9313 493.0938 L484.2154 480.6699 L483.6923 487.2088 L477.6765 489.8244 Z" clip-path="url(#clipPath2)" stroke="none"/>
    </g>
    <g font-size="14px" stroke-linecap="butt" transform="matrix(1,0,0,1,-49,-293)" text-rendering="geometricPrecision" font-family="sans-serif" shape-rendering="geometricPrecision" font-weight="bold" stroke-miterlimit="1.45">
      <text x="401.125" xml:space="preserve" y="465.5289" clip-path="url(#clipPath2)" stroke="none">S35</text>
    </g>
  </g>
</svg>
